<svg xmlns="http://www.w3.org/2000/svg" width="128" height="32" viewBox="0 0 128 32" fill="none">
  <g stroke="#fff" stroke-width="2.15" stroke-linecap="round" stroke-linejoin="round">
    <path d="M3 17c4-1 7-4 10-8 1 5 2 8 3 9 2-3 5-5 10-6-3 3-5 6-6 9-2 2-5 2-8 0-3-2-6-3-9-4Z" fill="#fff" fill-opacity=".9"/>
    <path d="M35 17c4-2 7-4 10-5 2 1 3 3 3 6 2-3 5-5 10-6-3 3-5 6-6 9-2 2-5 2-8 0-3-2-6-3-9-4Z" fill="#fff" fill-opacity=".9"/>
    <path d="M67 17c4 0 7 1 10 4 1-2 2-4 3-5 2 2 5 3 10 2-3 2-5 3-6 5-2 2-5 2-8 0-3-3-6-5-9-6Z" fill="#fff" fill-opacity=".9"/>
    <path d="M99 17c4-1 7-4 10-8 1 5 2 8 3 9 2-3 5-5 10-6-3 3-5 6-6 9-2 2-5 2-8 0-3-2-6-3-9-4Z" fill="#fff" fill-opacity=".9"/>
  </g>
  <g fill="#153d63"><circle cx="20.5" cy="18.5" r=".8"/><circle cx="52.5" cy="18.5" r=".8"/><circle cx="84.5" cy="20.5" r=".8"/><circle cx="116.5" cy="18.5" r=".8"/></g>
  <g fill="#f1a33a"><path d="m24 19 4 1-4 1Z"/><path d="m56 19 4 1-4 1Z"/><path d="m88 21 4 1-4 1Z"/><path d="m120 19 4 1-4 1Z"/></g>
</svg>
